HIERARCHY
ROOT Hips
{
 OFFSET 0.000000 0.000000 0.000000
 CHANNELS 6 Xposition Yposition Zposition Yrotation Xrotation Zrotation
 JOINT Chest
 {
  OFFSET 0.000000 9.585900 0.002600
  CHANNELS 3 Yrotation Xrotation Zrotation
  JOINT Chest2
  {
   OFFSET 0.000000 9.601200 -0.005300
   CHANNELS 3 Yrotation Xrotation Zrotation
   JOINT Chest3
   {
    OFFSET 0.000000 9.561800 0.000000
    CHANNELS 3 Yrotation Xrotation Zrotation
    JOINT Chest4
    {
     OFFSET 0.000000 9.552100 0.000000
     CHANNELS 3 Yrotation Xrotation Zrotation
     JOINT Neck
     {
      OFFSET 0.000000 14.453000 0.000000
      CHANNELS 3 Yrotation Xrotation Zrotation
      JOINT Head
      {
       OFFSET 0.000000 8.936500 -0.011300
       CHANNELS 3 Yrotation Xrotation Zrotation
       End Site
       {
        OFFSET 0.000000 17.073600 -0.006000
       }
      }
     }
     JOINT RightCollar
     {
      OFFSET -2.921100 9.558500 0.000000
      CHANNELS 3 Yrotation Xrotation Zrotation
      JOINT RightShoulder
      {
       OFFSET -13.519700 0.000000 0.000000
       CHANNELS 3 Yrotation Xrotation Zrotation
       JOINT RightElbow
       {
        OFFSET 0.000000 -29.696600 0.000000
        CHANNELS 3 Yrotation Xrotation Zrotation
        JOINT RightWrist
        {
         OFFSET 0.000000 -24.004700 0.000000
         CHANNELS 3 Yrotation Xrotation Zrotation
         End Site
         {
          OFFSET 0.000000 -17.728500 0.000000
         }
        }
       }
      }
     }
     JOINT LeftCollar
     {
      OFFSET 2.921100 9.558500 0.000000
      CHANNELS 3 Yrotation Xrotation Zrotation
      JOINT LeftShoulder
      {
       OFFSET 13.519700 0.000000 0.000000
       CHANNELS 3 Yrotation Xrotation Zrotation
       JOINT LeftElbow
       {
        OFFSET 0.000000 -29.696600 0.000000
        CHANNELS 3 Yrotation Xrotation Zrotation
        JOINT LeftWrist
        {
         OFFSET 0.000000 -24.004700 0.000000
         CHANNELS 3 Yrotation Xrotation Zrotation
         End Site
         {
          OFFSET 0.000000 -17.728500 0.000000
         }
        }
       }
      }
     }
    }
   }
  }
 }
 JOINT RightHip
 {
  OFFSET -7.771700 -0.012900 -0.001300
  CHANNELS 3 Yrotation Xrotation Zrotation
  JOINT RightKnee
  {
   OFFSET 0.000000 -40.869800 0.001200
   CHANNELS 3 Yrotation Xrotation Zrotation
   JOINT RightAnkle
   {
    OFFSET 0.000000 -39.717900 0.002100
    CHANNELS 3 Yrotation Xrotation Zrotation
    JOINT RightToe
    {
     OFFSET 0.000000 -4.965400 11.033500
     CHANNELS 3 Yrotation Xrotation Zrotation
     End Site
     {
      OFFSET 0.000000 -1.423100 5.872300
     }
    }
   }
  }
 }
 JOINT LeftHip
 {
  OFFSET 7.771700 -0.012900 -0.001300
  CHANNELS 3 Yrotation Xrotation Zrotation
  JOINT LeftKnee
  {
   OFFSET 0.000000 -40.869800 0.001200
   CHANNELS 3 Yrotation Xrotation Zrotation
   JOINT LeftAnkle
   {
    OFFSET 0.000000 -39.717900 0.002100
    CHANNELS 3 Yrotation Xrotation Zrotation
    JOINT LeftToe
    {
     OFFSET 0.000000 -4.965400 11.033500
     CHANNELS 3 Yrotation Xrotation Zrotation
     End Site
     {
      OFFSET 0.000000 -1.423100 5.872300
     }
    }
   }
  }
 }
}
MOTION
Frames: 11
Frame Time: 0.008333
-6.890597 54.417689 23.677776 179.610393 -30.579152 -9.969995 -0.035581 12.886632 4.997813 0.156268 7.565374 2.403891 0.245994 9.455112 3.014752 0.156279 7.565351 2.403888 4.786326 20.142840 -0.963379 5.354565 -4.309117 -2.229972 0.458438 -0.380607 -3.843052 -12.549866 -7.149777 3.483287 50.181003 -82.085427 -30.812054 12.350241 -14.870007 -24.809667 -9.697768 0.894814 -2.436659 4.827205 -4.497109 -1.739627 -95.844178 -83.751884 101.098622 13.381690 -5.630415 -5.969918 -16.966960 -34.951511 7.580196 27.210739 86.283508 24.934627 1.266047 -17.229874 -1.305258 0.055805 0.566827 -0.024524 -14.494078 -47.199544 15.388493 175.388070 79.528790 170.777702 -1.842467 -17.678474 1.398755 -0.208329 -1.142751 -0.039960
-6.875120 54.443657 23.673352 179.607622 -30.559621 -9.938026 -0.036030 12.883489 4.980079 0.155648 7.562496 2.395869 0.245038 9.451575 3.004598 0.154569 7.558262 2.402873 4.755223 20.049489 -1.051586 5.356922 -4.329749 -2.214844 0.490664 -0.394222 -3.871696 -12.518125 -7.127524 3.475182 49.877561 -82.147753 -30.499307 12.347917 -14.869794 -24.791590 -9.658588 0.887285 -2.426425 4.861913 -4.494865 -1.738213 -95.925149 -83.556394 101.183767 13.329179 -5.525863 -6.187071 -16.994329 -34.993118 7.558098 27.382322 86.334737 25.128907 1.301631 -17.268825 -1.355112 0.043231 0.568734 -0.018286 -14.440273 -47.228155 15.387403 175.435825 79.530915 170.801588 -1.900105 -17.674269 1.442866 -0.204494 -1.143187 -0.040811
-6.859955 54.469744 23.669263 179.607396 -30.540520 -9.911770 -0.037478 12.881375 4.968692 0.153328 7.556270 2.386597 0.243055 9.451336 2.996444 0.154014 7.550730 2.399693 4.741996 20.014034 -1.081358 5.356340 -4.350655 -2.220359 0.531996 -0.407969 -3.908520 -12.520002 -7.108285 3.497064 49.699829 -82.185683 -30.285867 12.350639 -14.869926 -24.793783 -9.587372 0.877250 -2.426142 4.847434 -4.488459 -1.718765 -96.069972 -83.373326 101.340381 13.316092 -5.494677 -6.336480 -17.052420 -35.027439 7.552566 27.805197 86.372622 25.552798 1.333398 -17.304425 -1.406950 0.041962 0.570274 -0.015018 -14.379980 -47.260109 15.379687 175.387246 79.529136 170.741503 -1.966076 -17.659569 1.485511 -0.211873 -1.150770 -0.042290
-6.845295 54.495937 23.665332 179.604725 -30.524715 -9.887306 -0.036295 12.881470 4.960209 0.148367 7.543658 2.374585 0.241966 9.452827 2.993345 0.153999 7.554807 2.389165 4.720900 19.967453 -1.121157 5.338256 -4.423717 -2.281219 0.565768 -0.426766 -3.930848 -12.502169 -7.096570 3.509210 49.630918 -82.211646 -30.194169 12.352218 -14.859849 -24.817722 -9.569809 0.867856 -2.415973 4.873016 -4.489066 -1.694953 -96.292951 -83.247029 101.566924 13.342667 -5.503073 -6.429316 -17.097913 -35.057321 7.554052 28.236684 86.407932 25.993509 1.311360 -17.337641 -1.446352 0.038293 0.566599 -0.006519 -14.308595 -47.285686 15.351540 175.384929 79.533837 170.747439 -2.010093 -17.659403 1.514226 -0.200096 -1.137595 -0.055391
-6.831531 54.520865 23.663632 179.611450 -30.496169 -9.867646 -0.046750 12.865386 4.947769 0.144463 7.545550 2.370748 0.239582 9.444318 2.985888 0.150053 7.561236 2.369512 4.697275 19.914172 -1.167526 5.320746 -4.479610 -2.330220 0.603571 -0.447825 -3.944864 -12.472539 -7.088097 3.518275 49.681706 -82.226715 -30.240554 12.342882 -14.832020 -24.864818 -9.551765 0.857691 -2.399063 4.879779 -4.492906 -1.660728 -96.568899 -83.200737 101.842163 13.392377 -5.521224 -6.477884 -17.146213 -35.099270 7.553461 28.801229 86.434861 26.567863 1.310363 -17.365293 -1.492877 0.035598 0.566039 -0.001904 -14.278990 -47.331007 15.348542 175.161520 79.524188 170.511987 -2.078116 -17.621720 1.554337 -0.211334 -1.158934 -0.067877
-6.818331 54.545636 23.662289 179.619929 -30.469535 -9.850034 -0.061227 12.843874 4.929179 0.149906 7.560648 2.374419 0.234113 9.434043 2.973336 0.148475 7.553889 2.372504 4.665605 19.884868 -1.219631 5.303585 -4.517860 -2.369961 0.628340 -0.457034 -3.966548 -12.428304 -7.088755 3.517194 49.623172 -82.233257 -30.218564 12.346223 -14.835544 -24.858840 -9.537246 0.852035 -2.402696 4.878511 -4.493040 -1.619627 -96.952255 -83.229891 102.213835 13.448941 -5.526125 -6.494555 -17.227188 -35.133778 7.584443 29.221164 86.464561 26.958385 1.303673 -17.390390 -1.526526 0.045364 0.565304 0.001164 -14.252320 -47.374962 15.341571 174.923550 79.514157 170.264635 -2.136075 -17.578905 1.583239 -0.230889 -1.188067 -0.070245
-6.805277 54.571055 23.659972 179.630405 -30.453926 -9.836546 -0.073449 12.841347 4.920296 0.146566 7.551375 2.365358 0.232989 9.437807 2.966163 0.146517 7.551458 2.365328 4.636462 19.855730 -1.262800 5.286194 -4.553191 -2.411431 0.664435 -0.469131 -3.984122 -12.428106 -7.080455 3.532831 49.688250 -82.234218 -30.282309 12.423973 -14.872838 -24.776596 -9.520083 0.840903 -2.396190 4.864137 -4.502406 -1.539909 -97.322109 -83.352563 102.575580 13.503954 -5.512700 -6.489280 -17.265515 -35.157913 7.602866 29.341021 86.499417 27.066865 1.313853 -17.413859 -1.550547 0.039660 0.564953 0.004230 -14.200902 -47.406015 15.321135 174.788878 79.510927 170.133061 -2.187453 -17.545464 1.615255 -0.241469 -1.209485 -0.070099
-6.790880 54.597090 23.657178 179.636531 -30.446828 -9.832992 -0.064194 12.846613 4.929821 0.139319 7.549490 2.358131 0.217169 9.443773 2.948761 0.146906 7.541502 2.365245 4.608129 19.825857 -1.308059 5.270917 -4.586243 -2.454178 0.704841 -0.483901 -4.001735 -12.429560 -7.073373 3.548071 50.064328 -82.231717 -30.636515 12.422795 -14.864436 -24.748845 -9.493573 0.813912 -2.404534 4.846965 -4.488787 -1.489737 -97.813904 -83.463784 103.051635 13.551277 -5.487047 -6.477186 -17.296003 -35.168859 7.617567 29.721813 86.519282 27.462723 1.295178 -17.433907 -1.591905 0.040467 0.562657 0.012233 -14.158526 -47.419610 15.313004 174.728055 79.512169 170.078155 -2.228775 -17.531977 1.644012 -0.239283 -1.210074 -0.075463
-6.776407 54.623255 23.654252 179.638068 -30.443851 -9.832102 -0.047292 12.867709 4.948157 0.121787 7.534723 2.342275 0.212027 9.440305 2.943819 0.138651 7.539513 2.354087 4.586372 19.800588 -1.348694 5.257603 -4.616142 -2.497796 0.726863 -0.490525 -3.994921 -12.363201 -7.095471 3.529016 50.592853 -82.244804 -31.128327 12.392864 -14.809756 -24.758061 -9.478253 0.804329 -2.396665 4.846161 -4.483967 -1.473997 -98.363817 -83.566377 103.589511 13.589048 -5.455778 -6.470298 -17.306499 -35.176377 7.601253 30.361869 86.523344 28.152143 1.319212 -17.449631 -1.666894 0.047058 0.560090 0.022369 -14.122520 -47.423307 15.306501 174.757480 79.518807 170.116942 -2.250960 -17.530274 1.659592 -0.226257 -1.191168 -0.081103
-6.767391 54.647394 23.652979 179.668491 -30.422676 -9.818264 -0.078423 12.856792 4.923134 0.121988 7.540617 2.341534 0.198149 9.435216 2.936229 0.132963 7.541924 2.347155 4.563787 19.774161 -1.392092 5.245065 -4.640896 -2.540869 0.776466 -0.502907 -4.006549 -12.261192 -7.142357 3.496768 50.495997 -82.265471 -31.092588 12.380820 -14.778602 -24.725972 -9.461881 0.790148 -2.395027 4.848645 -4.484287 -1.433887 -98.901267 -83.683162 104.117219 13.621005 -5.427503 -6.462227 -17.356946 -35.202858 7.595297 30.621928 86.550175 28.410525 1.335019 -17.472857 -1.700947 0.047834 0.560704 0.023500 -14.074871 -47.449784 15.271859 174.760216 79.531753 170.118142 -2.305087 -17.523816 1.700475 -0.216495 -1.177219 -0.079216
-6.757423 54.672044 23.651280 179.690035 -30.406965 -9.812168 -0.100156 12.849437 4.909567 0.118844 7.550664 2.343064 0.184977 9.425937 2.925260 0.114003 7.542103 2.335719 4.568374 19.757260 -1.418269 5.222489 -4.662238 -2.591955 0.877477 -0.505141 -4.035818 -12.241381 -7.181034 3.494400 50.332943 -82.294281 -30.956801 12.368189 -14.761015 -24.671964 -9.429060 0.771604 -2.401206 4.855480 -4.478950 -1.389294 -99.401796 -83.770347 104.612140 13.650997 -5.408946 -6.450014 -17.417787 -35.217408 7.604685 30.825012 86.569396 28.605759 1.363403 -17.494493 -1.739722 0.046954 0.563411 0.023766 -14.069016 -47.469624 15.269599 174.643113 79.532207 169.984233 -2.354761 -17.497459 1.733858 -0.225239 -1.187976 -0.083411
